<svg id="Laag_1" data-name="Laag 1" xmlns="http://www.w3.org/2000/svg" viewBox="0 0 811.21 858.11"><defs><style>.cls-1{fill:#3c1b12;}.cls-2{fill:#f2f2f2;}.cls-3{fill:#fef4db;}.cls-4{fill:#232323;}.cls-5{fill:#242323;}.cls-6{fill:#f1f1f1;}.cls-7{fill:#72534a;}.cls-8{fill:#7d6058;}.cls-9{fill:#c3c2c2;}.cls-10{fill:#c2c2c1;}.cls-11{fill:#c1c0c0;}.cls-12{fill:#eee;}</style></defs><path class="cls-1" d="M318.58,644.25c13.54,8.07,27.28,15.83,40.58,24.28,17.36,11,35.69,20.74,50.67,35.18,25.09,24.2,43.56,52.58,53.8,86.09.1.31.22.61.31.92.47,1.66.95,3.33,1.42,5-1.38-1.39-2.69-2.86-4.15-4.16-6.68-5.93-13.18-12.09-20.15-17.68-25.61-20.56-55.59-30.48-87.48-36.07-20.43-3.59-41-7.08-60.28-15.23a8.3,8.3,0,0,0-2.33-.27,12.41,12.41,0,0,0,1.17,3.05c11.39,15.52,22.12,31.58,34.42,46.35,21.75,26.13,50.24,43.57,79.94,59.31,19.14,10.14,39.37,17.37,59.81,24.19-.3.88-.6,1.76-.89,2.65l-4.88-.29-3.1-.78-3.84-.49-3.13-.64-4-.56-2.59-.6c-42-6.53-83.89-13.92-124.28-27.72A355,355,0,0,1,227,778.93l-32.16-25.88c-.88-1-1.69-2-2.64-2.91-54.67-52-79.67-115.88-76.62-191,.3-7.29.69-14.57,1-21.86l.31-2.9.66-2.09c2.5-6.45,4.78-13,7.53-19.32q13.5-31.11,27.31-62.09,13.25-29.75,26.77-59.36c9.17-20,17.92-40.19,28-59.71,14-27.28,34.67-48.83,60.7-65.16,18.54-11.62,37.49-22.37,59-27.5,12.88-3.08,25.78-6.25,38.83-8.39,9.79-1.61,19.83-1.63,29.76-2.36,31.61-2.33,62.58.49,92.67,11.09a238.77,238.77,0,0,1,53.64,26.63c24,16,41.93,38,57.94,61.66,14.49,21.37,22.66,45.75,32.46,69.38,6.93,16.72,14.67,33.12,22.24,49.57,6.42,14,13.13,27.8,19.7,41.7.7,14.25,1.49,28.49,2,42.75a58.54,58.54,0,0,1-.58,13.42c-2.35,11.87-4.9,23.72-8,35.42-6.18,23.51-11.63,47.21-11.6,71.57a355.31,355.31,0,0,0,3.82,51.1c2,13.35,6.56,26.32,10,39.45A20.74,20.74,0,0,0,676,756.23c2.38,5.68,4.82,11.34,7.12,17.06,1.5,3.75,2.79,7.59,4.17,11.4l1,2.45.64,2.9c.24.69.49,1.38.73,2.06L690,795c.26,1,.52,2,.79,3.06l-.09,13.79c-.24,1.36-.49,2.71-.73,4.07l-.18,1.93h-2.49c-.62-20.89-6.7-40-19-57l-8.56-12.44-3.84-5.78c-5.58-8.44-11.84-16.52-16.58-25.42-8.51-16-11.93-33.36-11.53-51.48a12.87,12.87,0,0,0-.67-3.12,15.92,15.92,0,0,0-1.65,2.34c-15.91,34.72-23.29,70.84-17.88,109.06-.67,4-.38,7.73,2.37,11C615.78,807.14,625.5,827,643,842.31a28.69,28.69,0,0,1,3.55,4,9.15,9.15,0,0,1,.88,2c-.82-.09-1.86.11-2.43-.31-22.41-16.56-46.14-31.64-66.84-50.12-32.35-28.86-51.5-66.19-60.94-108.52-5.49-24.59-6.37-49.37-4.32-74.36,1-1.69,1.67-3.73,3.06-5a54.28,54.28,0,0,0,13.63-20.6c5.9-15.25,11.83-30.57,16.41-46.25A285.9,285.9,0,0,0,555,501a487,487,0,0,0,4-52.17c.73-30.92.29-61.82-5.25-92.45-3-16.53-6.86-32.67-14-47.93-.52-1.12-1.19-2.16-1.79-3.24a37.92,37.92,0,0,0-.86,4.08c-2,17.65-3,35.46-6,52.93C527.35,384,519.38,404.41,505,421.78a58.76,58.76,0,0,1-4.74,5.11c-.5.47-1.5.4-2.27.58a12.21,12.21,0,0,1,.4-2c1-2.63,2.17-5.2,3-7.87a160.58,160.58,0,0,0,7.5-47c.14-13.59-.5-27.26-7-39.85-2.49-4.86-4.41-10-6.59-15-.53-1.2-1.05-2.41-1.58-3.61-.43,1.23-.87,2.46-1.28,3.7-.1.32-.07.67-.15,1-11.92,49-34.08,91.87-74,124.24-2.35,1.91-3.74,2.28-6.15.2-8.81-7.6-18-14.81-26.71-22.49-20.35-17.86-37.39-38.37-47.65-63.69-5.09-12.58-8.8-25.7-13.16-38.57a21.36,21.36,0,0,0-1.14-2.42c-.43.82-.93,1.61-1.28,2.46-2.87,6.89-5.9,13.72-8.51,20.71-2,5.41-4.71,10.93-5.09,16.54A138.48,138.48,0,0,0,323.24,426l-.89.72c-15.84-13.6-29.08-29.2-36.64-49-2.48-6.48-4-13.31-6.07-20a10.59,10.59,0,0,0-1.09-1.94,7.42,7.42,0,0,0-1.54,1.72c-1.82,3.89-3.42,7.9-5.33,11.75-10.66,21.48-21.25,43-32.18,64.35-3.93,7.68-8.8,14.82-9.68,23.77-.9,9.26-2.64,18.44-3.36,27.71-2,26.2.26,51.93,11.81,75.93,8,16.73,19.5,31.32,32.09,44.86A209.7,209.7,0,0,0,318.58,644.25Z" transform="translate(-7.27 -1.04)"/><path class="cls-2" d="M674.13,488.41c-6.57-13.9-13.28-27.73-19.7-41.7-7.57-16.45-15.31-32.85-22.24-49.57-9.8-23.63-18-48-32.46-69.38-16-23.61-33.93-45.62-57.94-61.66a238.77,238.77,0,0,0-53.64-26.63c-30.09-10.6-61.06-13.42-92.67-11.09-9.93.73-20,.75-29.76,2.36-13.05,2.14-26,5.31-38.83,8.39-21.52,5.13-40.47,15.88-59,27.5-26,16.33-46.65,37.88-60.7,65.16-10.06,19.52-18.81,39.73-28,59.71q-13.56,29.6-26.77,59.36-13.8,31-27.31,62.09c-2.75,6.33-5,12.87-7.53,19.32l-.66,2.09-.31,2.9c-.84.7-2.13,1.22-2.46,2.11-4.11,11-8.11,22-12.08,33.06-3.67,10.2-7.5,20.34-10.82,30.66-2.76,8.6-5.74,17.28-7,26.16-1.4,9.45-.8,19.18-1.25,28.75-.43,8.89,2.39,16.92,6.12,24.71,6.16,12.86,17.08,21.33,28.18,29.45,19.22,14.08,40.64,24.35,61.87,34.91,5,2.48,10.45,4,15.7,5.95L227,778.93c-11.59-3.9-23.21-7.7-34.74-11.74-5.47-1.92-10.75-4.36-16.15-6.47-7.07-2.78-14.41-5-21.22-8.29-11-5.34-21.71-11.23-32.4-17.13-16-8.84-31-19.13-43.47-32.69-10.87-11.84-19.51-25-24-40.65a190.62,190.62,0,0,1-6.76-64.2c.65-11.3,3.21-22.48,4.65-33.75,1.24-9.81,2-19.69,3.18-29.51.78-6.71,1.93-13.37,2.76-20.08S60.54,501,61,494.23c.85-13.55,1.35-27.11,2.1-40.67.59-10.73.79-21.53,2.16-32.16,1.68-13,4.22-26,6.73-38.93,2-10.16,4.48-20.22,6.74-30.33,4.1-18.28,9.15-36.26,16.78-53.43,6.87-15.47,13.38-31.13,20.93-46.28,5.48-11,12.44-21.26,18.6-31.94.77-1.34,3.95-8.62,4.23-10.24,4.73-1.55.58-.45,2.77-4.68.72-1.06,10.29-12.9,11.26-13.76.42,1.3,4.14,13.54,4.22,14.9-.5,7.09,0,10.92,1.63,18.16,2.56,11.25,5.61,14.85,14.72,20.7,5.9,4,9,3.47,15.43.55,3.75-1.61,9.33-2.55,13.26-3.27,7-1.29,13.11-.57,18.35,4.18,6.64,6,8.75,11.33,18.34,8.9l9.44,2.36c4-.48,4.41-2.11,8.36-2.91,12.16-2.49,18.73-12,19.07-24.34s10.5-26.48,16.71-36.14c4.41-6.86,11.79-7.08,14.35-15.44,3.46-11.32-.39-14.9-6.9-23.79-3.84-5.23-17.31-12.18-17.62-18.89-.56-12,2.1-12.57-7.63-16.89-8.12-3.48-37-1.91-45.77-1.06-3.94.3,11.42-6.59,7.5-6,4.82-3.3,16.37-10.15,21.56-12.7C269,94.82,280,89.89,291.1,85.55,297.77,83,305,81.74,312,80c7.56-2,15.11-4,22.72-5.74a79.18,79.18,0,0,1,13.15-2.11c14.2-.86,28.43-2,42.64-2,15.21,0,30.47.68,45.62,2,13.21,1.19,26.25,4.17,39.46,5.51,7.79.8,15,3.58,22.48,4.92a130,130,0,0,1,29.67,8.55c14.45,6.37,28.37,14,42.47,21.13a61.93,61.93,0,0,1,7.54,4.63c3.88,2.74,4.59,2.6,6.33-1.61a16.71,16.71,0,0,1,1.47-2.43c.93,3.63-1.28,8.16,3.14,10.84.57.35.83,1.22,1.24,1.85a15.24,15.24,0,0,1-2.43.14c-3.43-.33-6.93-1.37-10.27-1-9.27,1-16.65,5.75-23.18,12.39-2.63,2.69-6.48,4.47-10.08,5.87-6,2.32-12.24,4-18.35,6a20.39,20.39,0,0,0-12.83,11.81c-2.63,6.47-5.93,13.43-.6,20.24,7.89,10.1,9.93,21.38,7.52,33.77-1.57,8.1,5.53,20,12.93,22.72,17.92,6.54,34.3,15.47,47.52,29.75,4.42,4.77,10.07,8.54,15.59,12.11,2.46,1.6,6,1.33,9,2.31,9.47,3.15,18.7,2.1,26.63-3.45,9.93-6.95,15-17.23,15-29.42a31.22,31.22,0,0,1,6-19c3.68-5.1,7-10.48,10.16-15.91,1.59-2.71,2.5-5.83,3.72-8.76,2.08,3,4.58,5.72,6.17,8.93,4.51,9.13,10.61,15.75,21.69,15.58a52.05,52.05,0,0,1-6.06,1.11c-4.29.28-4.86,1.12-2.84,4.68,5.21,9.17,10.65,18.21,15.53,27.55,4.38,8.38,8.09,17.1,12.17,25.63,2.45,5.12,5.38,10,7.5,15.26,4.08,10.07,7.77,20.3,11.57,30.49,2.87,7.7,6.09,15.3,8.38,23.17,4.41,15.14,8.63,30.35,12.22,45.7,2.43,10.38,3.68,21,5.39,31.58q2,12.39,3.84,24.8c.24,1.64,0,3.33.17,5,2.56,30.82,1.86,61.72,2,92.6.06,10.38.47,20.77,1,31.13.28,5.26,1.75,10.48,1.77,15.72,0,10.68.27,21.47-1,32a141.69,141.69,0,0,1-14.58,46.49,160.61,160.61,0,0,1-34.93,46.65c-11.66,10.63-25,18.94-39.17,26a5.34,5.34,0,0,0-1.07,1,20.79,20.79,0,0,1-6.16-14.11c7.88-5.74,15.87-11.33,23.61-17.25,11.24-8.59,21.87-17.9,28.08-31,5.77-12.17,13-24.19,15.76-37.09,2.64-12.29,1.71-25.85-.2-38.46-1.64-10.86-6.16-21.48-10.66-31.66-6.63-15-14.15-29.59-21.7-44.15-7.26-14-15-27.76-22.61-41.55C679.7,496.67,676.81,492.6,674.13,488.41Z" transform="translate(-7.27 -1.04)"/><path class="cls-3" d="M318.58,644.25A209.63,209.63,0,0,1,270.36,606c-12.59-13.54-24-28.13-32.09-44.86-11.55-24-13.83-49.73-11.81-75.93.72-9.27,2.46-18.45,3.36-27.71.88-9,5.75-16.09,9.68-23.77,10.93-21.34,21.52-42.87,32.18-64.35,1.91-3.85,3.51-7.86,5.33-11.75a7.42,7.42,0,0,1,1.54-1.72,10.59,10.59,0,0,1,1.09,1.94c2,6.66,3.59,13.49,6.07,20,7.56,19.75,20.8,35.35,36.64,48.95l.9,1.54v-2.26a138.44,138.44,0,0,1-14.53-72.29c.38-5.61,3.06-11.13,5.09-16.54,2.61-7,5.64-13.82,8.51-20.71.35-.85.85-1.64,1.28-2.46a21.36,21.36,0,0,1,1.14,2.42c4.36,12.87,8.07,26,13.16,38.57,10.26,25.32,27.3,45.83,47.65,63.69,8.75,7.68,17.9,14.89,26.71,22.49,2.41,2.08,3.8,1.71,6.15-.2,39.87-32.37,62-75.25,74-124.24a5,5,0,0,1,.15-1c.41-1.24.85-2.47,1.28-3.7.53,1.2,1.05,2.41,1.58,3.61,2.18,5,4.1,10.17,6.59,15,6.47,12.59,7.11,26.26,7,39.85a160.58,160.58,0,0,1-7.5,47c-.85,2.67-2,5.24-3,7.87a12.21,12.21,0,0,0-.4,2c.77-.18,1.77-.11,2.27-.58a58.76,58.76,0,0,0,4.74-5.11c14.36-17.37,22.33-37.74,26.08-59.56,3-17.47,4.07-35.28,6-52.93a37.92,37.92,0,0,1,.86-4.08c.6,1.08,1.27,2.12,1.79,3.24,7.1,15.26,11,31.4,14,47.93,5.54,30.63,6,61.53,5.25,92.45A487.5,487.5,0,0,1,555,501a285.73,285.73,0,0,1-9,42.24c-4.58,15.68-10.51,31-16.41,46.25A54.28,54.28,0,0,1,516,610.09c-1.39,1.27-2.06,3.31-3.06,5-1.76,1.13-3.75,2-5.24,3.42-10.34,9.84-21.53,18.45-34.34,24.89-13.47,6.77-26.56,14.38-40.32,20.46a141.66,141.66,0,0,1-29.46,9c-5,1-11.06-.2-16-2-19-7-37.75-14.57-56.56-22-3.36-1.34-6.47-3.27-9.78-4.76C320.46,643.7,319.44,644.15,318.58,644.25Z" transform="translate(-7.27 -1.04)"/><path class="cls-4" d="M249.81,265.15h-9.12c-2.72-.49-5.71-.44-8.12-1.59-5.47-2.6-11.16-5.16-15.84-8.88C207.79,247.53,201,246.49,191,252a18.74,18.74,0,0,1-5.52,2c-16.12,3-25.44-6.24-31.42-18.67-6.17-12.83-2.79-26.33-1.73-39.61a9.06,9.06,0,0,1,.55-1.84,9,9,0,0,0-1.69,1.44c-3.41,4.88-6.7,9.85-10.2,14.68-.91,1.24-2.31,2.77-3.65,3-9.65,1.3-15.68,2.59-28,1.65-2.24.4-5.42-1-7.86-1.06l-2.86-.71c-1.16-.41-2.64-1.16-3.89-1.59-9.69-3.65-19.66-6.65-29.07-10.89-6.85-3.09-13-7.77-19.42-11.75-1.66-1.78-3.2-3.69-5-5.33-10.31-9.39-18.07-20.72-24.36-33-8.64-16.85-10.88-35-9-53.65,1.36-13.2,4.49-26.07,11.76-37.5,4.08-6.4,8.34-12.68,12.52-19h0c6.52-5.58,12.75-11.58,19.64-16.67a100.37,100.37,0,0,1,45.38-19c7.87-1.17,15.71-3.13,23.61-3.42,7.4-.27,14.92.79,22.28,2C166,6.68,186,16.6,203.47,31.57c4.25,3.63,8.05,7.8,12.05,11.72h0c2.24,3.84,4.36,7.75,6.73,11.51,10.19,16.22,15.65,33.81,15.51,53,0,5.36-.09,5.1,5.27,4.57,8.39-.83,16.89-2.16,25.22-1.59,14,1,27.06,8.6,28.81,23.95.74,6.46,3.51,11.61,7.71,16.31,11.14,12.48,10.71,31.64-.46,44.07A76.15,76.15,0,0,0,293.68,210c-3.36,6.33-7.77,12.29-7.95,20.09-.34,13.88-9.94,26.6-23.14,31.2C258.39,262.79,254.07,263.88,249.81,265.15Zm-44-48.75c.19,2.15.32,4.31.57,6.45.84,7.09,4.54,10.41,11.56,10.16,12.85-.47,24.08-5.12,34.18-13,11.07-8.66,18.47-20.08,25.1-32.15a50.62,50.62,0,0,0,6.59-28.06c-.58-9.09-5.65-16.07-13.48-17.32-7.3-1.16-14.68-.49-21.18,3.4-15.7,9.4-26.56,23.38-35,39.2-5.09,9.63-8.36,20.12-8.33,31.32Z" transform="translate(-7.27 -1.04)"/><path class="cls-5" d="M694.1,229.63c-11.08.17-17.18-6.45-21.69-15.58-1.59-3.21-4.09-6-6.17-8.93-1.22,2.93-2.13,6-3.72,8.76-3.17,5.43-6.48,10.81-10.16,15.91a31.22,31.22,0,0,0-6,19c-.05,12.19-5.08,22.47-15,29.42-7.93,5.55-17.16,6.6-26.63,3.45-3-1-6.54-.71-9-2.31-5.52-3.57-11.17-7.34-15.59-12.11C566.89,253,550.51,244,532.59,237.49c-7.4-2.7-14.5-14.62-12.93-22.72,2.41-12.39.37-23.67-7.52-33.77-5.33-6.81-2-13.77.6-20.24A20.41,20.41,0,0,1,525.57,149c6.11-2,12.36-3.65,18.35-6,3.6-1.4,7.45-3.18,10.08-5.87,6.53-6.64,13.91-11.36,23.18-12.39,3.34-.38,6.84.66,10.27,1a15.17,15.17,0,0,0,2.43-.14c-.41-.63-.67-1.5-1.24-1.85-4.42-2.68-2.21-7.21-3.14-10.84q.4-4,.79-7.9c.53-2.67,1.07-5.33,1.61-8l.41-2.94q3.15-7.93,6.29-15.86l.79-2.09,13.31-19.9,1.59-1.94,8.31-8.85-.31-.21.28.26,2.67-2.41,2.07-1.66,4.05-3.21-.06.06,2.94-2.2,2.93-2L639,30.57l.23-.09L650,24.65l2.11-.5,10-4,1.94-.32,5.08-1.6,3.9-.53,7-1.61,2-.19,15-1.81h11L722,16l2,.21,7,1.65,2.93.39,11.92,4.13L748,23l10.93,5.3,1.11.49,6.89,4.44,1.08.45,2.77,1.79,1.07.63,3,2.16,1.34,1.13,3.18,2.21.25-.33-.2.36,4.37,3.74,4.94,4.75,4.9,5.58,2.57,3.62,2,2.66.42,1.09,3.24,5h0c2.89,6.16,5.9,12.27,8.63,18.5,1.69,3.84,3,7.87,4.4,11.82,3.39,13,5,18,2.11,39.71-.35,14.64-7.67,27.72-15.87,39.5-5,7.14-11.24,13.38-16.91,20-.93,1.09-1.77,2.27-2.65,3.41q-3.23,2.64-6.46,5.27l-.24.06-5.11,3.36-1.8,1-2.74,1.75-.28.08-7,4-2.1.69L742,222.84l-3.12.69L735,224.91l-4.06.66-24,4ZM548,174.36c.87,4,1.52,8.07,2.66,12,1.56,5.37,3.56,10.6,5.24,15.94,3.73,11.83,11.94,20.55,20.82,28.38,8.69,7.67,19.42,11.88,30.84,14.21,6.26,1.28,13.71-3.19,15.67-9.24,3.93-12.12,1.31-23.46-3.45-34.68s-12.53-20.21-20.53-29c-8.73-9.64-19.13-16.71-32-19.79-5.76-1.37-10.59.18-13.72,5.25S547.76,167.87,548,174.36Z" transform="translate(-7.27 -1.04)"/><path class="cls-6" d="M659.7,748.53,668.26,761c-13.33,5.78-26.62,11.66-40,17.29-6,2.53-12.21,4.57-18.33,6.83-2.75-3.23-3-7-2.37-11Z" transform="translate(-7.27 -1.04)"/><path class="cls-2" d="M707,229.61l24-4c-.91,1-1.71,2.69-2.77,2.87-5.87,1-11.8,1.68-17.73,2.27C709.36,230.82,708.15,230,707,229.61Z" transform="translate(-7.27 -1.04)"/><path class="cls-1" d="M687.27,817.87h2.49c-.71,4.46-1.4,8.92-2.19,13.35-.1.52-.82.93-1.25,1.39a10.56,10.56,0,0,1-.13-1.68C686.53,826.54,686.91,822.2,687.27,817.87Z" transform="translate(-7.27 -1.04)"/><path class="cls-1" d="M465.42,857.84c.29-.89.59-1.77.89-2.65,3.16.78,6.32,1.53,9.47,2.35a6.06,6.06,0,0,1,1.47.87c-.55.26-1.14.79-1.66.73C472.19,858.78,468.81,858.29,465.42,857.84Z" transform="translate(-7.27 -1.04)"/><path class="cls-2" d="M742,222.84l13.76-5.6c-1.45,1.19-2.71,2.89-4.37,3.47A75.45,75.45,0,0,1,742,222.84Z" transform="translate(-7.27 -1.04)"/><path class="cls-2" d="M757.87,216.55l7-4C763.6,215.68,761.48,217.41,757.87,216.55Z" transform="translate(-7.27 -1.04)"/><path class="cls-2" d="M775.09,206.31c2.16-1.75,4.31-3.5,6.46-5.27C781.71,205.63,778.35,205.91,775.09,206.31Z" transform="translate(-7.27 -1.04)"/><path class="cls-2" d="M769.74,209.73l5.11-3.36C774.66,209.79,772.2,209.75,769.74,209.73Z" transform="translate(-7.27 -1.04)"/><path class="cls-2" d="M735,224.91l3.85-1.38C738.57,226.68,736.94,226.17,735,224.91Z" transform="translate(-7.27 -1.04)"/><path class="cls-7" d="M689.91,815.94c.24-1.36.49-2.71.73-4.07C690.4,813.23,690.15,814.58,689.91,815.94Z" transform="translate(-7.27 -1.04)"/><path class="cls-8" d="M457.44,856.77l3.1.78Z" transform="translate(-7.27 -1.04)"/><path class="cls-7" d="M690.73,798.08c-.27-1-.53-2-.79-3.06C690.2,796,690.46,797.06,690.73,798.08Z" transform="translate(-7.27 -1.04)"/><path class="cls-8" d="M450.47,855.64l3.13.64Z" transform="translate(-7.27 -1.04)"/><path class="cls-2" d="M765.2,212.45l2.74-1.75Z" transform="translate(-7.27 -1.04)"/><path class="cls-7" d="M688.26,787.14l-1-2.45Z" transform="translate(-7.27 -1.04)"/><path class="cls-7" d="M689.63,792.1c-.24-.68-.49-1.37-.73-2.06C689.14,790.73,689.39,791.42,689.63,792.1Z" transform="translate(-7.27 -1.04)"/><path class="cls-8" d="M443.89,854.48l2.59.6Z" transform="translate(-7.27 -1.04)"/><path class="cls-2" d="M587.9,97c-.54,2.67-1.08,5.33-1.61,8C584.79,101.89,583.66,98.88,587.9,97Z" transform="translate(-7.27 -1.04)"/><path class="cls-2" d="M627.36,38.2l-4.05,3.21C623.14,38.42,624.89,37.85,627.36,38.2Z" transform="translate(-7.27 -1.04)"/><path class="cls-2" d="M621.24,43.07l-2.67,2.41Z" transform="translate(-7.27 -1.04)"/><path class="cls-2" d="M774.86,38.25l-3-2.16Z" transform="translate(-7.27 -1.04)"/><path class="cls-2" d="M630.24,36.06l-2.94,2.2Z" transform="translate(-7.27 -1.04)"/><path class="cls-2" d="M770.79,35.46,768,33.67Z" transform="translate(-7.27 -1.04)"/><path class="cls-9" d="M674.13,488.41c2.68,4.19,5.57,8.26,8,12.59,7.65,13.79,15.35,27.56,22.61,41.55,7.55,14.56,15.07,29.17,21.7,44.15,4.5,10.18,9,20.8,10.66,31.66,1.91,12.61,2.84,26.17.2,38.46-2.77,12.9-10,24.92-15.76,37.09-6.21,13.06-16.84,22.37-28.08,31-7.74,5.92-15.73,11.51-23.61,17.25-3.42-13.13-8-26.1-10-39.45a355.31,355.31,0,0,1-3.82-51.1c0-24.36,5.42-48.06,11.6-71.57,3.07-11.7,5.62-23.55,8-35.42a58.54,58.54,0,0,0,.58-13.42C675.62,516.9,674.83,502.66,674.13,488.41Z" transform="translate(-7.27 -1.04)"/><path class="cls-10" d="M194.84,753.05c-5.25-2-10.72-3.47-15.7-5.95-21.23-10.56-42.65-20.83-61.87-34.91-11.1-8.12-22-16.59-28.18-29.45C85.36,675,82.54,666.92,83,658c.48-9.6-.12-19.33,1.26-28.78,1.29-8.88,4.27-17.56,7-26.16,3.32-10.32,7.15-20.46,10.82-30.66,4-11,8-22.08,12.08-33.06.33-.89,1.62-1.41,2.46-2.11-.35,7.29-.74,14.57-1,21.86-3,75.14,22,139,76.62,191C193.15,751,194,752.08,194.84,753.05Z" transform="translate(-7.27 -1.04)"/><path class="cls-11" d="M659.7,748.53l-52.15,25.6c-5.41-38.22,2-74.34,17.88-109.06a15.92,15.92,0,0,1,1.65-2.34,12.87,12.87,0,0,1,.67,3.12c-.4,18.12,3,35.5,11.53,51.48,4.74,8.9,11,17,16.58,25.42Z" transform="translate(-7.27 -1.04)"/><path class="cls-10" d="M116.93,534.36l.66-2.09Z" transform="translate(-7.27 -1.04)"/><path class="cls-1" d="M323.24,426v2.26l-.9-1.54Z" transform="translate(-7.27 -1.04)"/><path class="cls-12" d="M205.82,216.4c0-11.2,3.24-21.69,8.38-31.35,8.4-15.82,19.26-29.8,35-39.2,6.5-3.89,13.88-4.56,21.18-3.4,7.83,1.25,12.9,8.23,13.48,17.32a50.62,50.62,0,0,1-6.59,28.06c-6.63,12.07-14,23.49-25.1,32.15C242,227.89,230.8,232.54,218,233c-7,.25-10.72-3.07-11.56-10.16C206.14,220.71,206,218.55,205.82,216.4Z" transform="translate(-7.27 -1.04)"/><path class="cls-12" d="M548,174.36c-.26-6.49,2.35-11.84,5.51-17s8-6.62,13.72-5.25c12.89,3.08,23.29,10.15,32,19.79,8,8.83,15.79,17.86,20.53,29s7.38,22.56,3.45,34.68c-2,6-9.41,10.52-15.67,9.24-11.42-2.33-22.15-6.54-30.84-14.21-8.88-7.83-17.09-16.55-20.82-28.38-1.68-5.34-3.68-10.57-5.24-15.94C549.54,182.43,548.89,178.36,548,174.36Z" transform="translate(-7.27 -1.04)"/></svg>