<?xml version="1.0" standalone="no"?>
<!DOCTYPE svg PUBLIC "-//W3C//DTD SVG 20010904//EN"
 "http://www.w3.org/TR/2001/REC-SVG-20010904/DTD/svg10.dtd">
<svg version="1.0" xmlns="http://www.w3.org/2000/svg"
 width="1536.000000pt" height="1536.000000pt" viewBox="0 0 1536.000000 1536.000000"
 preserveAspectRatio="xMidYMid meet">
<metadata>
Created by potrace 1.11, written by Peter Selinger 2001-2013
</metadata>
<g transform="translate(0.000000,1536.000000) scale(0.100000,-0.100000)"
fill="#000000" stroke="none">
<path d="M5275 14579 c-267 -39 -520 -165 -712 -354 -187 -185 -296 -388 -347
-650 -92 -464 138 -885 537 -985 26 -7 47 -16 47 -21 0 -4 -26 -46 -59 -92
-234 -335 -513 -825 -664 -1167 -180 -409 -293 -761 -407 -1265 -28 -121 -64
-278 -81 -350 -29 -126 -60 -321 -74 -475 -4 -41 -9 -88 -11 -105 -31 -256
-22 -666 21 -940 19 -124 114 -389 194 -539 171 -323 298 -504 605 -865 190
-223 347 -422 379 -479 l27 -50 -44 13 c-56 17 -174 30 -243 27 -58 -2 -199
-44 -244 -71 -49 -30 -149 -122 -149 -137 0 -8 -4 -14 -9 -14 -5 0 -37 -54
-70 -120 -33 -66 -82 -153 -107 -193 -26 -39 -58 -92 -71 -117 -27 -52 -99
-260 -110 -317 -8 -44 -13 -404 -6 -416 3 -4 6 -38 9 -75 2 -37 6 -87 9 -112
14 -117 27 -205 30 -210 3 -6 12 -83 24 -215 11 -123 3 -350 -14 -415 -2 -8
-6 -31 -9 -50 -3 -19 -8 -48 -11 -65 -3 -16 -17 -88 -30 -160 -23 -125 -53
-308 -61 -370 -2 -16 -9 -50 -14 -75 -6 -25 -11 -54 -11 -65 0 -11 -4 -36 -9
-55 -5 -19 -14 -89 -20 -155 -6 -66 -13 -140 -16 -165 -6 -52 -7 -597 0 -608
2 -4 7 -47 10 -97 4 -49 9 -97 12 -106 2 -9 6 -56 8 -104 3 -69 -1 -108 -20
-184 -13 -53 -24 -125 -25 -161 0 -60 27 -306 36 -320 2 -4 7 -31 10 -61 8
-67 38 -180 63 -240 32 -73 160 -217 369 -410 40 -38 101 -111 141 -170 74
-108 108 -148 180 -211 l42 -38 3719 0 3718 0 7 42 c12 73 4 299 -15 426 -38
260 -122 453 -263 607 -20 22 -57 71 -83 109 l-46 68 27 162 c23 134 64 393
81 509 2 15 7 44 10 65 30 209 38 308 39 512 1 243 -29 543 -82 820 -28 144
-33 177 -48 300 -5 43 -7 147 -19 1005 -6 496 -13 562 -77 790 -108 389 -275
640 -514 775 -21 13 -57 33 -79 45 -96 54 -329 138 -416 150 -24 3 -55 8 -69
10 -48 9 -86 13 -160 20 -41 4 -83 9 -93 12 -15 4 1 40 111 256 169 329 280
532 393 719 92 152 130 213 286 456 46 71 100 164 122 208 88 178 175 475 195
664 3 30 9 82 13 115 11 99 8 464 -5 560 -7 50 -15 106 -18 125 -2 19 -7 44
-9 56 -3 12 -7 39 -10 60 -25 171 -152 693 -220 904 -53 163 -138 387 -190
498 -19 41 -35 75 -35 77 0 14 -433 888 -480 970 -13 22 -40 69 -60 105 -20
36 -51 88 -68 116 -38 61 -40 74 -8 74 34 0 190 47 239 71 61 31 114 73 187
149 146 153 218 338 225 580 9 336 -114 645 -356 890 -169 171 -382 289 -626
346 -136 32 -362 41 -461 18 -265 -61 -454 -239 -492 -462 l-11 -70 -84 63
c-140 106 -278 179 -455 243 -283 101 -461 132 -720 127 -371 -8 -715 -101
-1122 -305 l-157 -79 0 63 c1 75 -13 131 -53 211 -92 186 -261 302 -498 341
-93 15 -280 17 -375 3z"/>
</g>
</svg>
